<svg width="22" height="22" viewBox="0 0 22 22" xmlns="http://www.w3.org/2000/svg">
    <g fill="none" fill-rule="evenodd">
        <rect stroke="#FFF" x=".5" y="3.5" width="21" height="18" rx="2"/>
        <rect fill="#FFF" x="16" width="1" height="6" rx=".5"/>
        <rect fill="#FFF" x="5" width="1" height="6" rx=".5"/>
        <path d="M7.474 10.3c-.84 0-1.536.228-2.076.708-.576.48-.888 1.152-.96 2.016h1.38c.048-.516.216-.9.504-1.152.276-.252.66-.372 1.164-.372.492 0 .864.108 1.116.324.228.216.348.528.348.948 0 .42-.132.744-.384.96-.264.216-.648.324-1.152.324h-.6v1.056h.6c.552 0 .972.108 1.26.348.288.228.444.588.444 1.08 0 .408-.144.744-.42 1.02-.312.3-.744.456-1.284.456-.492 0-.888-.144-1.188-.42-.336-.3-.504-.732-.528-1.284H4.27c.072.96.408 1.704 1.008 2.208.54.456 1.26.684 2.148.684.936 0 1.692-.264 2.268-.78.552-.504.828-1.152.828-1.944 0-.504-.144-.924-.432-1.248-.264-.312-.66-.54-1.164-.696.948-.312 1.428-.936 1.428-1.872 0-.744-.264-1.32-.78-1.74-.528-.42-1.236-.624-2.1-.624z" fill="#FFF"/>
        <path d="M14.59 10.3c-1.008 0-1.788.408-2.34 1.248-.528.792-.792 1.86-.792 3.204s.264 2.412.792 3.204c.552.828 1.332 1.248 2.34 1.248.996 0 1.776-.42 2.34-1.248.528-.792.792-1.86.792-3.204s-.264-2.412-.792-3.204c-.564-.84-1.344-1.248-2.34-1.248zm0 1.188c.672 0 1.152.372 1.44 1.14.192.516.288 1.224.288 2.124 0 .888-.096 1.596-.288 2.124-.288.756-.768 1.14-1.44 1.14-.684 0-1.164-.384-1.44-1.14-.192-.528-.288-1.236-.288-2.124 0-.9.096-1.608.288-2.124.276-.768.756-1.14 1.44-1.14z" fill="#FFF" fill-rule="nonzero"/>
        <rect fill="#FFF" y="7" width="22" height="1" rx=".5"/>
    </g>
</svg>
